<svg width="1356" height="1703" viewBox="0 0 1356 1703" fill="none" xmlns="http://www.w3.org/2000/svg">
<mask id="path-1-outside-1" maskUnits="userSpaceOnUse" x="-0.382874" y="0.122803" width="1357" height="1703" fill="black">
<rect fill="white" x="-0.382874" y="0.122803" width="1357" height="1703"/>
<path d="M1.08181 5.53601C3.40514 9.56042 5.72848 13.585 8.51647 17.6094C12.6985 24.5084 16.4158 32.5573 20.5978 40.6061C24.7798 48.655 28.0325 57.8538 32.2144 67.0525C35.9318 76.2511 39.6491 86.5997 43.3664 96.9482C50.3364 118.22 57.7711 141.792 64.7411 166.513C72.1757 191.81 79.6104 218.256 88.9037 246.427C98.6617 274.023 110.278 302.194 126.077 329.216C130.259 336.115 133.976 343.014 138.623 349.338C143.27 355.662 147.916 361.986 152.098 368.31C162.321 380.383 172.544 393.032 184.16 403.38C206.929 425.227 233.88 443.05 261.76 457.998C290.104 472.945 319.378 485.594 349.117 499.967C378.391 514.34 408.129 531.587 434.151 554.584C440.656 560.908 446.697 566.657 453.202 572.981L462.495 583.33L467.142 588.504L469.465 591.379C469.93 591.954 470.395 592.529 470.395 592.529L471.324 593.678C476.9 601.152 482.476 608.626 487.587 616.675C492.234 624.724 497.81 632.773 502.457 641.397C521.043 675.892 534.519 714.412 546.135 754.656C558.217 794.9 568.904 836.294 583.773 877.114C585.632 882.288 587.491 887.462 589.349 892.062L595.855 907.01C600.037 916.783 605.148 925.982 609.795 935.756C612.118 940.355 614.906 944.954 617.694 949.554L626.058 963.352C628.846 967.951 632.099 971.4 634.887 976L644.18 988.648C669.737 1020.84 700.869 1046.71 733.396 1065.69C765.922 1085.23 799.843 1099.03 831.905 1114.56C863.967 1130.08 894.635 1147.33 921.586 1170.32C928.556 1176.07 934.132 1182.4 940.637 1188.14C946.678 1194.47 953.183 1201.94 959.224 1209.42L960.153 1210.57C960.618 1211.14 959.688 1209.99 960.153 1210.57L960.618 1211.14L962.476 1214.02L966.658 1219.77L974.558 1230.69C979.669 1238.16 984.316 1246.21 988.962 1254.26C1007.08 1286.46 1019.63 1322.1 1030.78 1358.32C1041.93 1394.54 1051.23 1431.91 1063.31 1467.56C1074.93 1503.2 1089.33 1537.12 1107.45 1567.59C1112.1 1575.07 1116.75 1583.11 1121.39 1589.44C1123.72 1592.89 1126.04 1595.76 1128.36 1599.21L1131.61 1603.81L1132.54 1604.96L1133.01 1605.54C1132.54 1604.96 1133.94 1606.69 1133.94 1606.69L1135.8 1608.99C1141.37 1615.31 1146.48 1621.06 1151.6 1627.38C1157.17 1633.13 1162.75 1638.31 1168.32 1643.48C1191.09 1664.18 1214.79 1679.7 1237.56 1692.35C1243.6 1695.8 1249.64 1698.67 1255.68 1702.12L1355.58 1702.12C1342.57 1695.8 1328.63 1689.47 1314.23 1683.15C1293.78 1673.95 1272.41 1665.33 1251.03 1653.83C1229.66 1642.33 1207.82 1628.53 1187.84 1610.71C1182.73 1606.11 1177.62 1601.51 1172.97 1596.34C1168.32 1591.16 1163.21 1585.99 1158.57 1580.24L1156.71 1578.52L1156.24 1577.94L1155.31 1576.79L1151.6 1572.19C1149.27 1569.32 1146.95 1565.87 1144.63 1562.42C1139.51 1556.09 1135.8 1549.77 1132.08 1543.45C1115.82 1517.57 1102.34 1486.53 1090.72 1452.61C1079.11 1418.69 1068.88 1382.47 1057.27 1345.1C1045.19 1307.73 1030.78 1269.78 1010.8 1234.71C1005.23 1226.09 1000.11 1217.47 994.538 1209.42L985.71 1197.34L981.063 1191.59L978.74 1188.72L978.275 1188.14L977.346 1187L975.952 1185.85C969.446 1178.95 963.87 1172.05 956.9 1165.15C949.466 1158.25 942.496 1151.35 935.061 1145.03C905.322 1120.3 872.331 1103.06 839.34 1088.11C806.348 1073.16 773.357 1059.94 741.76 1042.12C710.627 1024.29 681.353 1001.3 657.19 971.975L648.362 960.477C645.574 956.453 642.321 952.428 639.533 948.404L631.634 936.33C629.311 932.306 626.523 928.282 624.199 923.682C619.553 914.483 614.441 906.435 610.724 896.661L604.219 882.863C602.36 878.263 600.501 873.089 598.643 868.49C583.773 829.97 572.621 789.151 559.611 748.332C547.065 708.087 532.66 667.843 512.679 632.198C508.033 622.999 501.992 614.951 496.881 606.327C491.305 598.278 485.264 590.229 479.223 582.755L478.294 581.03C477.365 579.88 477.365 579.88 476.9 579.306L474.577 576.431L469.93 571.257L460.637 560.908C454.131 554.009 447.161 548.26 440.191 541.361C412.311 517.214 381.643 500.542 351.905 486.744C321.701 472.945 291.963 460.872 264.083 447.074C236.203 433.276 210.182 416.028 187.413 395.331C175.796 385.558 165.574 373.484 155.816 361.986C151.169 355.662 146.522 349.338 141.876 343.589C137.694 337.265 133.512 330.94 129.794 324.616C114.46 298.745 102.379 270.574 92.1564 243.553C82.3984 216.531 74.4991 189.51 67.0644 164.789C59.6298 139.492 52.1951 116.495 44.7604 95.2234C40.5784 84.8749 36.8611 74.5265 33.1438 65.3278C28.9618 56.129 25.2445 46.9303 21.0625 38.8815C16.8805 30.8325 13.1631 22.7837 8.98114 16.4596C6.19314 11.8602 3.40514 7.26074 0.617147 3.23633L0.617147 5.53601L1.08181 5.53601Z"/>
</mask>
<path d="M1.08181 5.53601C3.40514 9.56042 5.72848 13.585 8.51647 17.6094C12.6985 24.5084 16.4158 32.5573 20.5978 40.6061C24.7798 48.655 28.0325 57.8538 32.2144 67.0525C35.9318 76.2511 39.6491 86.5997 43.3664 96.9482C50.3364 118.22 57.7711 141.792 64.7411 166.513C72.1757 191.81 79.6104 218.256 88.9037 246.427C98.6617 274.023 110.278 302.194 126.077 329.216C130.259 336.115 133.976 343.014 138.623 349.338C143.27 355.662 147.916 361.986 152.098 368.31C162.321 380.383 172.544 393.032 184.16 403.38C206.929 425.227 233.88 443.05 261.76 457.998C290.104 472.945 319.378 485.594 349.117 499.967C378.391 514.34 408.129 531.587 434.151 554.584C440.656 560.908 446.697 566.657 453.202 572.981L462.495 583.33L467.142 588.504L469.465 591.379C469.93 591.954 470.395 592.529 470.395 592.529L471.324 593.678C476.9 601.152 482.476 608.626 487.587 616.675C492.234 624.724 497.81 632.773 502.457 641.397C521.043 675.892 534.519 714.412 546.135 754.656C558.217 794.9 568.904 836.294 583.773 877.114C585.632 882.288 587.491 887.462 589.349 892.062L595.855 907.01C600.037 916.783 605.148 925.982 609.795 935.756C612.118 940.355 614.906 944.954 617.694 949.554L626.058 963.352C628.846 967.951 632.099 971.4 634.887 976L644.18 988.648C669.737 1020.84 700.869 1046.71 733.396 1065.69C765.922 1085.23 799.843 1099.03 831.905 1114.56C863.967 1130.08 894.635 1147.33 921.586 1170.32C928.556 1176.07 934.132 1182.4 940.637 1188.14C946.678 1194.47 953.183 1201.94 959.224 1209.42L960.153 1210.57C960.618 1211.14 959.688 1209.99 960.153 1210.57L960.618 1211.14L962.476 1214.02L966.658 1219.77L974.558 1230.69C979.669 1238.16 984.316 1246.21 988.962 1254.26C1007.08 1286.46 1019.63 1322.1 1030.78 1358.32C1041.93 1394.54 1051.23 1431.91 1063.31 1467.56C1074.93 1503.2 1089.33 1537.12 1107.45 1567.59C1112.1 1575.07 1116.75 1583.11 1121.39 1589.44C1123.72 1592.89 1126.04 1595.76 1128.36 1599.21L1131.61 1603.81L1132.54 1604.96L1133.01 1605.54C1132.54 1604.96 1133.94 1606.69 1133.94 1606.69L1135.8 1608.99C1141.37 1615.31 1146.48 1621.06 1151.6 1627.38C1157.17 1633.13 1162.75 1638.31 1168.32 1643.48C1191.09 1664.18 1214.79 1679.7 1237.56 1692.35C1243.6 1695.8 1249.64 1698.67 1255.68 1702.12L1355.58 1702.12C1342.57 1695.8 1328.63 1689.47 1314.23 1683.15C1293.78 1673.95 1272.41 1665.33 1251.03 1653.83C1229.66 1642.33 1207.82 1628.53 1187.84 1610.71C1182.73 1606.11 1177.62 1601.51 1172.97 1596.34C1168.32 1591.16 1163.21 1585.99 1158.57 1580.24L1156.71 1578.52L1156.24 1577.94L1155.31 1576.79L1151.6 1572.19C1149.27 1569.32 1146.95 1565.87 1144.63 1562.42C1139.51 1556.09 1135.8 1549.77 1132.08 1543.45C1115.82 1517.57 1102.34 1486.53 1090.72 1452.61C1079.11 1418.69 1068.88 1382.47 1057.27 1345.1C1045.19 1307.73 1030.78 1269.78 1010.8 1234.71C1005.23 1226.09 1000.11 1217.47 994.538 1209.42L985.71 1197.34L981.063 1191.59L978.74 1188.72L978.275 1188.14L977.346 1187L975.952 1185.85C969.446 1178.95 963.87 1172.05 956.9 1165.15C949.466 1158.25 942.496 1151.35 935.061 1145.03C905.322 1120.3 872.331 1103.06 839.34 1088.11C806.348 1073.16 773.357 1059.94 741.76 1042.12C710.627 1024.29 681.353 1001.3 657.19 971.975L648.362 960.477C645.574 956.453 642.321 952.428 639.533 948.404L631.634 936.33C629.311 932.306 626.523 928.282 624.199 923.682C619.553 914.483 614.441 906.435 610.724 896.661L604.219 882.863C602.36 878.263 600.501 873.089 598.643 868.49C583.773 829.97 572.621 789.151 559.611 748.332C547.065 708.087 532.66 667.843 512.679 632.198C508.033 622.999 501.992 614.951 496.881 606.327C491.305 598.278 485.264 590.229 479.223 582.755L478.294 581.03C477.365 579.88 477.365 579.88 476.9 579.306L474.577 576.431L469.93 571.257L460.637 560.908C454.131 554.009 447.161 548.26 440.191 541.361C412.311 517.214 381.643 500.542 351.905 486.744C321.701 472.945 291.963 460.872 264.083 447.074C236.203 433.276 210.182 416.028 187.413 395.331C175.796 385.558 165.574 373.484 155.816 361.986C151.169 355.662 146.522 349.338 141.876 343.589C137.694 337.265 133.512 330.94 129.794 324.616C114.46 298.745 102.379 270.574 92.1564 243.553C82.3984 216.531 74.4991 189.51 67.0644 164.789C59.6298 139.492 52.1951 116.495 44.7604 95.2234C40.5784 84.8749 36.8611 74.5265 33.1438 65.3278C28.9618 56.129 25.2445 46.9303 21.0625 38.8815C16.8805 30.8325 13.1631 22.7837 8.98114 16.4596C6.19314 11.8602 3.40514 7.26074 0.617147 3.23633L0.617147 5.53601L1.08181 5.53601Z" stroke="white" stroke-opacity="0.1" stroke-width="1.5" mask="url(#path-1-outside-1)"/>
</svg>
